{"title":"[PC]The Prestige (2006) BluRay 720p x264 [Dual Audio] [Hindi+Eng","uid":11014308,"size":731001162,"categoryP":"video","categoryS":"hd___movies","magnet":"?xt=urn:btih:88392db42bb26c9d6089fbfe7a375f2ab4622b2c&amp;dn=%5BPC%5DThe+Prestige+%282006%29+BluRay+720p+x264+%5BDual+Audio%5D+%5BHindi%2BEng&amp;tr=udp%3A%2F%2Ftracker.openbittorrent.com%3A80&amp;tr=udp%3A%2F%2Fopen.demonii.com%3A1337&amp;tr=udp%3A%2F%2Ftracker.coppersurfer.tk%3A6969&amp;tr=udp%3A%2F%2Fexodus.desync.com%3A6969","seeders":1,"leechers":0,"uploader":null,"files":1,"time":1410395601,"description":"\nlanguage :english,hindi\nsubtitle:none\nsource :pc hd group\n\n\nGeneral\nFormat : Matroska\nFormat version : Version 4 / Version 2\nFile size : 3.33 GiB\nDuration : 2h 10mn\nOverall bit rate : 3 649 Kbps\nMovie name : The Prestige (2006)\n\nVideo\nID : 1\nFormat : AVC\nFormat/Info : Advanced Video Codec\nFormat profile : &lt;a class=&quot;__cf_email__&quot; href=&quot;/cdn-cgi/l/email-protection&quot; data-cfemail=&quot;f3bb9a949bb3bfc7ddc2&quot;&gt;[email&amp;#160;protected]&lt;/a&gt;&lt;script cf-hash='f9e31' type=&quot;text/javascript&quot;&gt;\n/* &lt;![CDATA[ */!function(){try{var t=&quot;currentScript&quot;in document?document.currentScript:function(){for(var t=document.getElementsByTagName(&quot;script&quot;),e=t.length;e--;)if(t[e].getAttribute(&quot;cf-hash&quot;))return t[e]}();if(t&amp;&amp;t.previousSibling){var e,r,n,i,c=t.previousSibling,a=c.getAttribute(&quot;data-cfemail&quot;);if(a){for(e=&quot;&quot;,r=parseInt(a.substr(0,2),16),n=2;a.length-n;n+=2)i=parseInt(a.substr(n,2),16)^r,e+=String.fromCharCode(i);e=document.createTextNode(e),c.parentNode.replaceChild(e,c)}}}catch(u){}}();/* ]]&gt; */&lt;/script&gt;\nFormat settings, CABAC : Yes\nFormat settings, ReFrames : 2 frames\nCodec ID : V_MPEG4/ISO/AVC\nDuration : 2h 10mn\nBit rate : 2 297 Kbps\nWidth : 1 920 pixels\nHeight : 818 pixels\nDisplay aspect ratio : 2.35:1\nFrame rate mode : Constant\nFrame rate : 23.976 fps\nColor space : YUV\nChroma subsampling : 4:2:0\nBit depth : 8 bits\nScan type : Progressive\nBits/(Pixel*Frame) : 0.061\nStream size : 2.09 GiB (63%)\nWriting library : x264 core\nDefault : Yes\nForced : No\nColor primaries : BT.709\nTransfer characteristics : BT.709\nMatrix coefficients : BT.709\n\nAudio #1\nID : 2\nFormat : AC-3\nFormat/Info : Audio Coding 3\nMode extension : CM (complete main)\nFormat settings, Endianness : Big\nCodec ID : A_AC3\nDuration : 2h 10mn\nBit rate mode : Constant\nBit rate : 640 Kbps\nChannel(s) : 6 channels\nChannel positions : Front: L C R, Side: L R, LFE\nSampling rate : 48.0 KHz\nBit depth : 16 bits\nCompression mode : Lossy\nStream size : 597 MiB (18%)\nLanguage : Latin\nDefault : Yes\nForced : No\n","torrent":{"xt":"urn:btih:88392db42bb26c9d6089fbfe7a375f2ab4622b2c","amp;dn":"%5BPC%5DThe+Prestige+%282006%29+BluRay+720p+x264+%5BDual+Audio%5D+%5BHindi%2BEng","amp;tr":["udp%3A%2F%2Ftracker.openbittorrent.com%3A80","udp%3A%2F%2Fopen.demonii.com%3A1337","udp%3A%2F%2Ftracker.coppersurfer.tk%3A6969","udp%3A%2F%2Fexodus.desync.com%3A6969"],"infoHash":"88392db42bb26c9d6089fbfe7a375f2ab4622b2c","infoHashBuffer":{"type":"Buffer","data":[136,57,45,180,43,178,108,157,96,137,251,254,122,55,95,42,180,98,43,44]},"announce":[],"urlList":[]}}